<?xml version="1.0" encoding="utf-8"?>
<!-- Generator: Adobe Illustrator 19.1.0, SVG Export Plug-In . SVG Version: 6.00 Build 0)  -->
<svg version="1.1" id="Layer_1" xmlns="http://www.w3.org/2000/svg" xmlns:xlink="http://www.w3.org/1999/xlink" x="0px" y="0px"
	 viewBox="0 0 475.9 73.4" enable-background="new 0 0 475.9 73.4" xml:space="preserve">
<g>
	<g>
		<path fill="#FFFFFF" d="M90.5,51.5c5.3,0,9.6-2.1,12.9-6.3l6.9,7.1c-5.5,6.1-11.9,9.2-19.3,9.2c-7.4,0-13.5-2.3-18.3-7
			c-4.8-4.7-7.2-10.6-7.2-17.7c0-7.1,2.4-13.1,7.3-17.9c4.9-4.8,10.9-7.2,17.9-7.2c7.9,0,14.5,3,19.8,9l-6.7,7.6
			c-3.4-4.2-7.6-6.3-12.7-6.3c-4,0-7.5,1.3-10.4,4c-2.9,2.6-4.3,6.2-4.3,10.7c0,4.5,1.4,8.1,4.1,10.8C83.4,50.2,86.7,51.5,90.5,51.5
			z"/>
		<path fill="#FFFFFF" d="M148.6,12.9h10.7V61h-10.7V42.1h-19.1V61h-10.7V12.9h10.7V33h19.1V12.9z"/>
		<path fill="#FFFFFF" d="M205.9,12.9v9.6h-23.9v9.9h21.5v9.1h-21.5v10h24.7V61h-35.4V12.9H205.9z"/>
		<path fill="#FFFFFF" d="M259.3,30.8l-13,26.3h-6.4l-12.9-26.3V61h-10.7V12.9h14.5l12.4,26.4l12.5-26.4H270V61h-10.7V30.8z"/>
		<path fill="#FFFFFF" d="M281.8,12.9h10.7V61h-10.7V12.9z"/>
		<path fill="#FFFFFF" d="M315.7,22.5c-1,0.8-1.5,2-1.5,3.4c0,1.4,0.6,2.5,1.9,3.3c1.3,0.8,4.2,1.8,8.7,2.9
			c4.6,1.1,8.1,2.8,10.6,5.1c2.5,2.2,3.8,5.5,3.8,9.8c0,4.3-1.6,7.8-4.8,10.5c-3.2,2.7-7.5,4-12.8,4c-7.6,0-14.5-2.8-20.6-8.5
			l6.4-7.8c5.2,4.5,10,6.8,14.4,6.8c2,0,3.5-0.4,4.6-1.3c1.1-0.8,1.7-2,1.7-3.4c0-1.4-0.6-2.6-1.8-3.4c-1.2-0.8-3.6-1.7-7.1-2.6
			c-5.6-1.3-9.7-3.1-12.3-5.2c-2.6-2.1-3.9-5.5-3.9-10c0-4.6,1.6-8.1,4.9-10.6c3.3-2.5,7.4-3.7,12.3-3.7c3.2,0,6.4,0.5,9.6,1.7
			c3.2,1.1,6,2.7,8.4,4.7l-5.4,7.8c-4.2-3.2-8.5-4.7-12.9-4.7C318.1,21.3,316.7,21.7,315.7,22.5z"/>
		<path fill="#FFFFFF" d="M368.3,22.2V61h-10.7V22.2h-13.6v-9.3h38v9.3H368.3z"/>
		<path fill="#FFFFFF" d="M428.7,28.9c0,7.7-3.1,12.7-9.1,14.9L431.8,61h-13.2l-10.7-15.3h-7.4V61h-10.7V12.9H408
			c7.5,0,12.8,1.3,16,3.8C427.1,19.3,428.7,23.3,428.7,28.9z M415.8,34.6c1.3-1.2,2-3.1,2-5.7c0-2.6-0.7-4.4-2.1-5.3
			c-1.4-1-3.8-1.4-7.2-1.4h-8v14.2h7.8C412,36.4,414.5,35.8,415.8,34.6z"/>
		<path fill="#FFFFFF" d="M459.2,61h-10.7V42l-16.6-29.1h11.6l10.4,17.9l10.4-17.9h11.6L459.2,42V61z"/>
	</g>
	<g>
		<path fill="#FFFFFF" d="M55.8,36.7l-3.4-3.4h0L50,30.9L19.5,61.5c0,0,0,0,0,0c-3.3,0-6,2.7-6,6c0,3.3,2.7,6,6,6c3.3,0,6-2.7,6-6
			c0-0.1,0-0.2,0-0.3L55.8,36.7z M19.4,68.9c-0.8,0-1.5-0.7-1.5-1.5c0-0.8,0.7-1.5,1.5-1.5c0.8,0,1.5,0.7,1.5,1.5
			C20.9,68.3,20.3,68.9,19.4,68.9z"/>
		<path fill="#FFFFFF" d="M44.4,25.3l-5.8-5.8L6.2,51.8l0,0c-0.1,0-0.1,0-0.2,0c-3.3,0-6,2.7-6,6c0,3.3,2.7,6,6,6c3.3,0,6-2.7,6-6
			c0-0.1,0-0.1,0-0.2L44.4,25.3z M6,59.3c-0.8,0-1.5-0.7-1.5-1.5c0-0.8,0.7-1.5,1.5-1.5c0.8,0,1.5,0.7,1.5,1.5
			C7.5,58.6,6.8,59.3,6,59.3z"/>
		<path fill="#FFFFFF" d="M25.4,6.3c0-0.1,0-0.2,0-0.3c0-3.3-2.7-6-6-6c-3.3,0-6,2.7-6,6c0,3.3,2.7,6,6,6c0,0,0,0,0.1,0L50,42.5
			l2.4-2.4h0l3.4-3.4L25.4,6.3z M17.9,6c0-0.8,0.7-1.5,1.5-1.5c0.8,0,1.5,0.7,1.5,1.5c0,0.8-0.7,1.5-1.5,1.5
			C18.6,7.5,17.9,6.8,17.9,6z"/>
		<path fill="#FFFFFF" d="M12,15.7L12,15.7c0-0.1,0-0.2,0-0.3c0-3.3-2.7-6-6-6c-3.3,0-6,2.7-6,6c0,3.3,2.7,6,6,6c0.1,0,0.2,0,0.3,0
			l-0.1,0.1l26.6,26.6l2.4-2.5l0,0l3.3-3.4L12,15.7z M4.5,15.4c0-0.8,0.7-1.5,1.5-1.5c0.8,0,1.5,0.7,1.5,1.5c0,0.8-0.7,1.5-1.5,1.5
			C5.2,16.9,4.5,16.2,4.5,15.4z"/>
	</g>
</g>
</svg>
