<?xml version="1.0" encoding="utf-8"?>
<!-- Generator: Adobe Illustrator 19.1.0, SVG Export Plug-In . SVG Version: 6.00 Build 0)  -->
<svg version="1.1" id="Layer_1" xmlns="http://www.w3.org/2000/svg" xmlns:xlink="http://www.w3.org/1999/xlink" x="0px" y="0px"
	 viewBox="0 0 55.8 73.4" enable-background="new 0 0 55.8 73.4" xml:space="preserve">
<g>
	<g>
		<path fill="#FFFFFF" d="M55.8,36.7l-3.4-3.4h0L50,30.9L19.5,61.5c0,0,0,0,0,0c-3.3,0-6,2.7-6,6c0,3.3,2.7,6,6,6c3.3,0,6-2.7,6-6
			c0-0.1,0-0.2,0-0.3L55.8,36.7z M19.4,68.9c-0.8,0-1.5-0.7-1.5-1.5c0-0.8,0.7-1.5,1.5-1.5c0.8,0,1.5,0.7,1.5,1.5
			C20.9,68.3,20.3,68.9,19.4,68.9z"/>
		<path fill="#FFFFFF" d="M44.4,25.3l-5.8-5.8L6.2,51.8l0,0c-0.1,0-0.1,0-0.2,0c-3.3,0-6,2.7-6,6c0,3.3,2.7,6,6,6c3.3,0,6-2.7,6-6
			c0-0.1,0-0.1,0-0.2L44.4,25.3z M6,59.3c-0.8,0-1.5-0.7-1.5-1.5c0-0.8,0.7-1.5,1.5-1.5c0.8,0,1.5,0.7,1.5,1.5
			C7.5,58.6,6.8,59.3,6,59.3z"/>
		<path fill="#FFFFFF" d="M25.4,6.3c0-0.1,0-0.2,0-0.3c0-3.3-2.7-6-6-6c-3.3,0-6,2.7-6,6c0,3.3,2.7,6,6,6c0,0,0,0,0.1,0L50,42.5
			l2.4-2.4h0l3.4-3.4L25.4,6.3z M17.9,6c0-0.8,0.7-1.5,1.5-1.5c0.8,0,1.5,0.7,1.5,1.5c0,0.8-0.7,1.5-1.5,1.5
			C18.6,7.5,17.9,6.8,17.9,6z"/>
		<path fill="#FFFFFF" d="M12,15.7L12,15.7c0-0.1,0-0.2,0-0.3c0-3.3-2.7-6-6-6c-3.3,0-6,2.7-6,6c0,3.3,2.7,6,6,6c0.1,0,0.2,0,0.3,0
			l-0.1,0.1l26.6,26.6l2.4-2.5l0,0l3.3-3.4L12,15.7z M4.5,15.4c0-0.8,0.7-1.5,1.5-1.5c0.8,0,1.5,0.7,1.5,1.5c0,0.8-0.7,1.5-1.5,1.5
			C5.2,16.9,4.5,16.2,4.5,15.4z"/>
	</g>
</g>
</svg>
