<?xml version="1.0" encoding="utf-8"?>
<!-- Generator: Adobe Illustrator 19.1.0, SVG Export Plug-In . SVG Version: 6.00 Build 0)  -->
<svg version="1.1" id="Layer_1" xmlns="http://www.w3.org/2000/svg" xmlns:xlink="http://www.w3.org/1999/xlink" x="0px" y="0px"
	 viewBox="0 0 50 50" enable-background="new 0 0 50 50" xml:space="preserve">
<g>
	<path d="M7.3,32.4c3.4,3.4,7.5,5.1,12.5,5.1c4.9,0,9-1.7,12.5-5.2s5.2-7.6,5.2-12.5s-1.7-9-5.2-12.5s-7.6-5.2-12.5-5.2
		s-9,1.7-12.5,5.2s-5.2,7.6-5.2,12.5C2.1,24.7,3.8,28.9,7.3,32.4z M49.9,46.9l-3,3L32.2,35.2c-3.6,2.9-7.7,4.3-12.5,4.3
		c-5.5,0-10.1-1.9-14-5.8S0,25.2,0,19.8s1.9-10.1,5.8-14S14.3,0,19.8,0s10.1,1.9,14,5.8s5.8,8.5,5.8,14c0,4.7-1.4,8.8-4.3,12.4
		L49.9,46.9z"/>
</g>
</svg>
